PathFileType	4	(X/Y/Z)	38_1_51_p1_0-301.trc
DataRate	CameraRate	NumFrames	NumMarkers	Units	OrigDataRate	OrigDataStartFrame	OrigNumFrames
57.0	57.0	6	27	m	57.0	113	302
Frame#	Time	RHip			RKnee			RAnkle			RBigToe			RSmallToe			RHeel			LHip			LKnee			LAnkle			LBigToe			LSmallToe			LHeel			Neck			Head			Nose			RShoulder			RElbow			RWrist			RThumb			RIndex			RPinky			LShoulder			LElbow			LWrist			LThumb			LIndex			LPinky			
		X1	Y1	Z1	X2	Y2	Z2	X3	Y3	Z3	X4	Y4	Z4	X5	Y5	Z5	X6	Y6	Z6	X7	Y7	Z7	X8	Y8	Z8	X9	Y9	Z9	X10	Y10	Z10	X11	Y11	Z11	X12	Y12	Z12	X13	Y13	Z13	X14	Y14	Z14	X15	Y15	Z15	X16	Y16	Z16	X17	Y17	Z17	X18	Y18	Z18	X19	Y19	Z19	X20	Y20	Z20	X21	Y21	Z21	X22	Y22	Z22	X23	Y23	Z23	X24	Y24	Z24	X25	Y25	Z25	X26	Y26	Z26	X27	Y27	Z27	
113	1.9824561403508771	0.3845904541034068	0.8002069432839863	0.5525303339824085	0.37963980039182293	0.9032848417816397	0.9390043354233216	0.3686561023858743	1.0496701682707306	1.3583925262102388	0.3271588701395396	0.8513947075316586	1.4260244603303518	0.4022940289807568	0.8609052338545744	1.4250448795846822	0.35285260395610335	1.1597621043034718	1.406398099970256	0.17795243847054057	0.8213004933264587	0.5530556031105262	0.1788029330381723	0.9409615648630609	0.9453950617818468	0.16765637888994137	1.0634437862143507	1.3325670251019792	0.16735717128905767	0.8835514228760262	1.4127500246377815	0.11496172835415025	0.9361961665204348	1.4112300307680177	0.19132368251716997	1.1357500982292246	1.396942356179951	0.28068858806343494	0.6167561553223233	0.0034697886141267535	0.27547162609468984	0.49844029778505483	-0.22494122891185522	0.23799070020188987	0.4749518525348487	-0.08645247541116277	0.4530791454334163	0.639186045280612	0.09909105910449864	0.49125096996565404	0.7043409571314001	0.3767904026014724	0.345561140978965	0.6160038929541977	0.5658739172498105	0.22811731912787606	0.6338226811276356	0.6143778269586635	0.21749250333268833	0.6704643988544934	0.6340050791560232	0.23782305698927597	0.6877783823061285	0.65039910934678	0.13431697851354515	0.6965891810215956	0.08608823597634788	0.1023743460277729	0.7031594861348562	0.35296275568152996	0.1727680098419035	0.6754706366704202	0.5545838716740056	0.23094708090379787	0.6174192242479936	0.6124095299466847	0.2333123552310253	0.6257526323843005	0.6389240074853885	0.22274866166731666	0.6904071045553901	0.6469440687383512
114	2.0	0.38386258978041543	0.7980689886638175	0.5485480533897438	0.3796171215545581	0.9031735999151613	0.9389471560471253	0.36862510139974847	1.0496273869056572	1.3583793106825157	0.3270823669884319	0.8513970982282137	1.4260604099818361	0.4020647750737463	0.8608263782772353	1.4252083872275283	0.3528171242555681	1.1597453227377443	1.4063635111590187	0.17681002643261734	0.8194638954028687	0.5519259120379056	0.17788365601896305	0.9382969283994401	0.9405804355079952	0.16766639426967625	1.0633118881461738	1.332485956952404	0.16738874720151217	0.8835420235784258	1.4127267121782565	0.1159606615883492	0.9347252153434407	1.4073798426487691	0.19647969920165095	1.1506681873958176	1.4009849422082645	0.28063630460453454	0.6168593018161685	0.0033078960270726022	0.2753876047486114	0.49851944569299156	-0.2247897143944734	0.24959148843062867	0.47560418751055156	-0.086559079903049	0.45305386523536884	0.6394005412129639	0.09904857388667364	0.4897327757613168	0.7193336542665173	0.3764542845582085	0.3455927375031998	0.6160072565989955	0.5658963734476099	0.22814496470551018	0.6338473246364469	0.6143209222228737	0.2175289015222685	0.6708584419813175	0.6340167187727954	0.23777602386559238	0.6874828251217575	0.6502948525537068	0.13431788318360213	0.6964569505332353	0.0860759543285408	0.10232495849625528	0.7029885853911654	0.35304443324572893	0.1722147681552963	0.6764556479680128	0.5584236869193157	0.23096213128596146	0.6175368883509819	0.6123699122862643	0.23273018476576562	0.6265423074012222	0.6429140965039396	0.2228143676037427	0.6904252488637739	0.6469331734980975
115	2.017543859649123	0.3838680319011309	0.7980024234415845	0.5485941549150812	0.3796948806011964	0.9033692158128541	0.939105079379538	0.3686882490926299	1.0498341370477342	1.3583457199967628	0.3269175157090232	0.8521018348841308	1.4222648086170238	0.40185346685909806	0.8605264056285923	1.4251298400544323	0.3528269204583648	1.1597987328618389	1.4063535140711627	0.1767946994302861	0.8195107684304492	0.551979716297301	0.1778508986209467	0.9383468850898986	0.9405333386886717	0.16760054661933835	1.0634439253669508	1.3325160902984619	0.16735270224261264	0.883559559592958	1.412710722463765	0.11587292935054655	0.9345997442381149	1.4072676545308398	0.1966524778009564	1.1393484662713333	1.3975363872882725	0.28049443574378186	0.6169022619531043	0.0033153320176185636	0.2754412006830668	0.49852595866838545	-0.22490536183449042	0.25497008056518855	0.48696751037867453	-0.08868997106391065	0.4530427599777345	0.6394823038278356	0.09899159107599159	0.48971111405588075	0.7192964543950559	0.37640175262271164	0.3456569673327226	0.6160996045653383	0.5658888002631796	0.22823938245291714	0.6338320323639773	0.6142262107503814	0.21758074253624585	0.6708233875982512	0.6339848394129219	0.23779230277861704	0.6877432393234449	0.6503552713243204	0.13420848727081716	0.6963220944428157	0.08621811820443392	0.10233773813692015	0.70259757039306	0.3531202293581059	0.17222781573355245	0.676350431364479	0.5584121435486347	0.23105384202608042	0.61758979527358	0.6123607232671037	0.23204047707510844	0.6245212587855429	0.6398033924473838	0.22282620463453692	0.6903703964844735	0.6469374820696425
116	2.0350877192982457	0.3831207675629164	0.7956742763464704	0.5446758677404753	0.37971809120891364	0.903428891042645	0.9391017337189829	0.36861848027511107	1.0496900591062752	1.3583730179092484	0.32688145285689507	0.8521148668044045	1.4223274396979073	0.40184700541146506	0.8604961774977806	1.425142953647668	0.3527866473707685	1.159687210793161	1.4063281497738818	0.17615853536015605	0.8167536408682156	0.5475518983048883	0.17784968499066653	0.9383205327790416	0.940514236205419	0.1675958559587012	1.063297015679283	1.3323768378671044	0.16736133153853922	0.8835455707461428	1.4126687448162643	0.1159221569803509	0.9344710549270284	1.4071601991798095	0.1912110805808772	1.1350118006337262	1.3958867910232333	0.2780508425145866	0.631081326630115	0.0044791462170034315	0.27540679908421867	0.4985851466195675	-0.22495710057630158	0.26028422034586335	0.49906576656338664	-0.08766065698452617	0.4532169590488461	0.6393671534240992	0.099054088222015	0.489715582710806	0.7192779357856665	0.37636571101811067	0.3456741586141858	0.6160864808958714	0.5659019162430324	0.22825884257942183	0.6339974932739129	0.6139143932108384	0.21511245382771588	0.6853120145944185	0.6348683549465354	0.23767845954074063	0.6877771003848497	0.6502876597672637	0.1341518561296224	0.6965272724461965	0.08627627191492236	0.09733545018060914	0.6981578853616369	0.3496715992546823	0.17272636820994827	0.6788365183110875	0.5583109215440814	0.2309815982365434	0.6172387730919754	0.6123560177298972	0.23255925778835723	0.6262650855642307	0.6427047844798484	0.2228271823309184	0.6904497471057466	0.6469045428314099
117	2.0526315789473686	0.3841135920774535	0.8016658601463021	0.5567398845048759	0.37972188964869663	0.9034867323882004	0.9391777151666192	0.36864949394864566	1.049590895365397	1.358388811260139	0.32684124509519735	0.852055589583093	1.4223482810979668	0.40183328602324986	0.860314731337785	1.4250532288846214	0.35279012343751637	1.1595731402030665	1.4063229423770127	0.1774300003520873	0.8218472522360837	0.5605606445994563	0.17864460701805893	0.9409497393961688	0.9453614424808867	0.16762383355147892	1.063334344782486	1.3324509869038905	0.16730807327445665	0.8833538538629317	1.4126822675539394	0.1159052170943062	0.9344421882147287	1.40718846385502	0.19651955379497682	1.1388836773238367	1.3971087085768912	0.2779777240958118	0.6309802603341834	0.001382358020310338	0.2758012877724714	0.5001261888993259	-0.2219274024787787	0.2764445093734773	0.5097284359305347	-0.08641018261389538	0.45722942681163037	0.6651712580429893	0.09605641689708237	0.48965316617183396	0.7194233724870576	0.37642878295929433	0.3473619507690198	0.6028568557428046	0.5692411968198657	0.22589514772636438	0.6464614730598179	0.6149432123394722	0.21518401820205824	0.6858111455795559	0.6349870289601389	0.23777459811770116	0.687716119313756	0.6504036169743939	0.1340619009049204	0.6964123013909135	0.08645458450499889	0.09776287559834006	0.7005415337153814	0.35320680180713876	0.17296177454238632	0.6791858541830975	0.5621607968948	0.23105438154197536	0.6175193744502485	0.612505077172486	0.23205974340055693	0.6247305914463971	0.6398376360619613	0.22292830130687916	0.6908024275987164	0.6469252961464372
118	2.0701754385964914	0.38409470070676266	0.8016304125382179	0.556639995966302	0.3797418179996272	0.9034316222301715	0.9390956427980243	0.3686090064777845	1.0494684925924207	1.358360467809327	0.3268437602255311	0.8520936201153934	1.422388522289506	0.4018512681724292	0.8604623757777392	1.4251309880872172	0.3527754374483774	1.1595646885404913	1.4063230967613483	0.17739453473286407	0.8221289440754364	0.5567488304480834	0.17858889452801194	0.9416054576633253	0.94151786788766	0.1676008203983338	1.0631334328116577	1.33231319188365	0.16734819216301813	0.8835111402038419	1.4127732436407996	0.11590511621973056	0.9347176567445171	1.407381261294259	0.19126540958220384	1.1347097098665626	1.3955698265949714	0.2782296232972385	0.6309551577805049	0.0014754477089714197	0.2759868181505361	0.5000827865336938	-0.2217785088610205	0.2768134614200331	0.5095962949995785	-0.08633373859482692	0.4587540763371517	0.6507999631932183	0.0977034663336195	0.4896954409626301	0.7193849334315102	0.37636375360323043	0.3473855666432635	0.6028340577049628	0.5692768870892376	0.22833887318228918	0.6339688808812991	0.6140151198914474	0.2151723937282511	0.6856134410904662	0.6349187142097922	0.23772094913975497	0.6875416335098611	0.650397595321991	0.13412623911069566	0.6963132455095551	0.08647800691222969	0.09776975676530518	0.7000569228397631	0.3532757180632062	0.17287689879643586	0.6789233831627445	0.5620980339325291	0.23120424681180732	0.6176021224516931	0.612287343208694	0.23216895481823718	0.6247977158519906	0.6397485723906988	0.2228482098199097	0.6906099942512028	0.6469887612770298
